<svg width="443" height="370" viewBox="0 0 443 370" fill="none" xmlns="http://www.w3.org/2000/svg">
<path opacity="0.1" d="M53.2904 53.7355C57.3276 29.6466 78.1778 12.0001 102.603 12.0001H392.285C419.899 12.0001 442.285 34.3859 442.285 62.0001V320C442.285 347.614 419.899 370 392.285 370H59.3624C28.4471 370 4.94011 342.226 10.0502 311.736L53.2904 53.7355Z" fill="#68C9BA"/>
<path d="M410.014 126.03C435.738 155.207 405.363 183.381 351.903 184.141C245.616 177.137 221.631 83.0074 229.664 61.9028C237.697 40.7982 261.615 40.2221 297.054 83.2151C332.493 126.208 377.858 89.5572 410.014 126.03Z" stroke="white" stroke-width="1.5"/>
<ellipse cx="305.634" cy="91.1502" rx="16.8481" ry="9.95569" transform="rotate(20.7184 305.634 91.1502)" stroke="white" stroke-width="1.5"/>
</svg>
